<svg id="Layer_1" enable-background="new 0 0 24 24" viewBox="0 0 24 24" xmlns="http://www.w3.org/2000/svg" xmlns:xlink="http://www.w3.org/1999/xlink" width="300" height="300" version="1.1" xmlns:svgjs="http://svgjs.dev/svgjs"><g width="100%" height="100%" transform="matrix(1,0,0,1,0,0)"><linearGradient id="SVGID_1_" gradientUnits="userSpaceOnUse" x1="4.906" x2="21.397" y1="8.459" y2="16.149"><stop stop-opacity="0.2" stop-color="#ffffff" offset="0"/><stop stop-opacity="0" stop-color="#ffffff" offset="1"/></linearGradient><g><path d="m9.0009766 11.9487305c-.0009766-5.9487305 1.9990234-9.9487305 5.9990234-11.9487305.5 6 6 8 6 15 0 4.970562-4.029438 9-9 9s-9-4.029438-9-9c0-3.5 1-5 3-7 0 3 3.0009766 3.9487305 3.0009766 3.9487305z" fill="#f16923" fill-opacity="1" data-original-color="#f16923ff" stroke="none" stroke-opacity="1" style=""/><path d="m12 23.75c-4.0259399 0-7.4354858-2.6156616-8.6376953-6.2381592 1.0880127 3.7468872 4.5398559 6.4881592 8.6376953 6.4881592s7.5496826-2.741272 8.6376953-6.4881592c-1.2022095 3.6224976-4.6117554 6.2381592-8.6376953 6.2381592z" fill="#010101" opacity=".1" fill-opacity="1" data-original-color="#010101ff" stroke="none" stroke-opacity="1" style=""/><path d="" fill="#2b7138" fill-opacity="1" data-original-color="#2b7138ff" stroke="none" stroke-opacity="1" style=""/><path d="m16.5 17.5c0 2.485281-2.014719 4.5-4.5 4.5s-4.5-2.014719-4.5-4.5c0-1.677083.5-2.541667 1.5-3.5 0 2 1.5 2.5 1.5 2.5-.0004883-2.8504333 1-4.541667 3-5.5.25 2.875 3 3.8125 3 6.5z" fill="#fdb816" fill-opacity="1" data-original-color="#fdb816ff" stroke="none" stroke-opacity="1" style=""/><path d="m10.5 16.75c-.0004883-2.8504639 1-4.541687 3-5.5.2450562 2.8182373 2.8857422 3.7788696 2.9902344 6.3469849.0007324-.0330201.0097656-.0637818.0097656-.0969849 0-2.6875-2.75-3.625-3-6.5-2 .958313-3.0004883 2.6495361-3 5.5 0 0-1.5-.5-1.5-2.5-1 .958313-1.5 1.822876-1.5 3.5 0 .0241089.0067139.0463867.0070801.0704346.036438-1.5556641.5308227-2.3984375 1.4929199-3.3204346 0 2 1.5 2.5 1.5 2.5z" fill="#ffffff" opacity=".2" fill-opacity="1" data-original-color="#ffffffff" stroke="none" stroke-opacity="1" style=""/><path d="m12 21.75c-2.4611816 0-4.4543457-1.9776611-4.4929199-4.4295654-.0014038.0612182-.0070801.1160278-.0070801.1795654 0 2.4852905 2.0147095 4.5 4.5 4.5s4.5-2.0147095 4.5-4.5c0-.0530396-.0076904-.1012573-.0097656-.1530151-.0528565 2.4393921-2.038147 4.4030151-4.4902344 4.4030151z" fill="#010101" opacity=".1" fill-opacity="1" data-original-color="#010101ff" stroke="none" stroke-opacity="1" style=""/><path d="m9.0009766 12.1987305c-.0009766-5.9487305 1.9990234-9.9487305 5.9990234-11.9487305.4968262 5.9622192 5.925415 7.9797363 5.9937744 14.8734741.0005493-.0415649.0062256-.0817871.0062256-.1234741 0-7-5.5-9-6-15-4 2-6 6-5.9990234 11.9487305 0 0-3.0009766-.9487305-3.0009766-3.9487305-2 2-3 3.5-3 7 0 .036438.0050049.0715332.0054321.1078491.0286255-3.392456 1.0236206-4.8869018 2.9945679-6.8578491 0 3 3.0009766 3.9487305 3.0009766 3.9487305z" fill="#ffffff" opacity=".2" fill-opacity="1" data-original-color="#ffffffff" stroke="none" stroke-opacity="1" style=""/><path d="m9.0009766 11.9487305c-.0009766-5.9487305 1.9990234-9.9487305 5.9990234-11.9487305.5 6 6 8 6 15 0 4.970562-4.029438 9-9 9s-9-4.029438-9-9c0-3.5 1-5 3-7 0 3 3.0009766 3.9487305 3.0009766 3.9487305z" fill="url(#SVGID_1_)" data-original-color="SVGID_1_" stroke="none" stroke-opacity="1" style=""/></g><g/><g/><g/><g/><g/><g/><g/><g/><g/><g/><g/><g/><g/><g/><g/></g></svg>