<svg id="Layer_1" enable-background="new 0 0 512 512" height="300" viewBox="0 0 512 512" width="300" xmlns="http://www.w3.org/2000/svg" version="1.1" xmlns:xlink="http://www.w3.org/1999/xlink" xmlns:svgjs="http://svgjs.dev/svgjs"><g width="100%" height="100%" transform="matrix(1,0,0,1,0,0)"><path d="m347.6 453.7-123.8-174.9c-1-1.3-1.5-2.9-1.5-4.6v-214.3c-114.6 4.3-206.4 98.8-206.4 214.3 0 172 191.4 271.1 331.7 179.5z" fill="#ffffff" fill-opacity="1" data-original-color="#ffffffff" stroke="none" stroke-opacity="1"/><path d="m282.6 23.6v204.8l202.3-32.7c-19.4-97.6-102.7-168.5-202.3-172.1z" fill="#68b1ff" fill-opacity="1" data-original-color="#68b1ffff" stroke="none" stroke-opacity="1"/><path d="m295.6 282.3 116.4 164.4c60.3-46.1 91.7-121.4 82.3-196.6z" fill="#68b1ff" fill-opacity="1" data-original-color="#68b1ffff" stroke="none" stroke-opacity="1"/><g fill="#2d527c"><path d="m500 233.1-219.6 35.5c-5.8.9-8.7 7.7-5.2 12.5l128.6 181.5c2.5 3.5 7.6 4.6 11.1 1.9 71.8-51 107.9-137.6 94.3-224.8-.6-4.3-5-7.4-9.2-6.6zm-88 213.6-116.4-164.4 198.8-32.2c9.4 75.2-22 150.4-82.4 196.6z" fill="#2d527c" fill-opacity="1" data-original-color="#2d527cff" stroke="none" stroke-opacity="1"/><path d="m363.4 462c3.6-2.6 4.4-7.5 1.9-11.1l-127-179.3v-219.8c0-4.4-3.6-8-8-8-61.5 0-119.4 24-162.9 67.4-43.5 43.6-67.4 101.4-67.4 162.9 0 184.1 210.5 296.5 363.4 187.9zm-141.1-402.1v214.3c0 1.7.5 3.3 1.5 4.6l123.9 174.9c-140.3 91.7-331.7-7.5-331.7-179.5-.1-115.5 91.7-210 206.3-214.3z" fill="#2d527c" fill-opacity="1" data-original-color="#2d527cff" stroke="none" stroke-opacity="1"/><path d="m274.7 7.4c-4.4 0-8 3.6-8 8v222.4c0 4.7 4.7 9 9.3 7.9l219.6-35.5c4.4-.7 7.3-4.8 6.6-9.2-18-111.5-114.6-193.6-227.5-193.6zm7.9 221v-204.8c99.6 3.6 182.9 74.4 202.3 172.1z" fill="#2d527c" fill-opacity="1" data-original-color="#2d527cff" stroke="none" stroke-opacity="1"/></g></g></svg>