<?xml version="1.0" encoding="iso-8859-1"?>
<!-- Generator: Adobe Illustrator 19.0.0, SVG Export Plug-In . SVG Version: 6.00 Build 0)  -->
<svg version="1.1" id="Layer_1" xmlns="http://www.w3.org/2000/svg" xmlns:xlink="http://www.w3.org/1999/xlink" x="0px" y="0px"
	 viewBox="0 0 512 512" style="enable-background:new 0 0 512 512;" xml:space="preserve">
<g>
	<rect x="8.272" y="410.14" style="fill:#00A651;" width="495.46" height="66.061"/>
	<rect x="8.272" y="344.078" style="fill:#00A651;" width="495.46" height="66.061"/>
	<rect x="8.272" y="278.026" style="fill:#00A651;" width="495.46" height="66.061"/>
</g>
<rect x="8.272" y="35.797" style="fill:#36C63F;" width="495.46" height="242.227"/>
<rect x="8.272" y="35.797" style="fill:#1BB24B;" width="495.46" height="121.108"/>
<g>
	<rect x="8.272" y="278.026" style="fill:#068236;" width="495.46" height="33.03"/>
	<rect x="8.272" y="344.078" style="fill:#068236;" width="495.46" height="33.03"/>
	<rect x="8.272" y="410.14" style="fill:#068236;" width="495.46" height="33.03"/>
</g>
<g>
	<polygon style="fill:#FFFFFF;" points="55.079,107.362 38.536,107.362 38.536,66.06 79.838,66.06 79.838,82.603 55.079,82.603 	"/>
	<polygon style="fill:#FFFFFF;" points="473.464,107.362 456.921,107.362 456.921,82.603 432.163,82.603 432.163,66.06 
		473.464,66.06 	"/>
	<polygon style="fill:#FFFFFF;" points="473.464,247.756 432.163,247.756 432.163,231.213 456.921,231.213 456.921,206.454 
		473.464,206.454 	"/>
	<polygon style="fill:#FFFFFF;" points="79.838,247.756 38.536,247.756 38.536,206.454 55.079,206.454 55.079,231.213 
		79.838,231.213 	"/>
</g>
<g>
	<path style="fill:#E7ECED;" d="M388.122,129.382c15.194,0,27.526,12.331,27.526,27.526s-12.331,27.526-27.526,27.526
		s-27.526-12.331-27.526-27.526C360.597,141.714,372.928,129.382,388.122,129.382z"/>
	<path style="fill:#E7ECED;" d="M118.373,129.382c15.194,0,27.526,12.331,27.526,27.526s-12.331,27.526-27.526,27.526
		s-27.526-12.331-27.526-27.526C90.848,141.714,103.179,129.382,118.373,129.382z"/>
	<path style="fill:#E7ECED;" d="M253.248,35.797c37.984,0,68.813,54.17,68.813,121.111c0,66.942-30.828,121.112-68.813,121.112
		s-68.813-54.17-68.813-121.112S215.262,35.797,253.248,35.797z"/>
</g>
<path d="M0,27.525v456.95h512V27.525H0z M313.79,156.908c0,61.165-27.724,112.839-60.542,112.839s-60.542-51.675-60.542-112.839
	S220.43,44.069,253.248,44.069S313.79,95.743,313.79,156.908z M16.543,44.069h198.536c-6.468,6.118-12.42,13.85-17.674,23.093
	c-13.699,24.098-21.243,55.97-21.243,89.747s7.544,65.649,21.243,89.747c5.254,9.243,11.205,16.976,17.674,23.093H16.543V44.069z
	 M495.457,467.931H16.543v-49.517h478.913V467.931z M16.543,401.87v-49.517h478.913v49.517H16.543z M16.543,335.809v-49.517h478.913
	v49.517H16.543z M291.416,269.749c6.468-6.118,12.42-13.85,17.674-23.093c13.699-24.098,21.243-55.97,21.243-89.747
	s-7.544-65.649-21.243-89.747c-5.254-9.243-11.205-16.976-17.674-23.093h204.041v225.68H291.416V269.749z"/>
<path d="M388.123,121.111c-19.738,0-35.797,16.059-35.797,35.797s16.059,35.797,35.797,35.797s35.797-16.059,35.797-35.797
	C423.919,137.17,407.861,121.111,388.123,121.111z M388.123,176.162c-10.616,0-19.254-8.638-19.254-19.254
	s8.638-19.254,19.254-19.254c10.616,0,19.254,8.638,19.254,19.254C407.376,167.524,398.739,176.162,388.123,176.162z"/>
<path d="M118.374,121.111c-19.738,0-35.797,16.059-35.797,35.797s16.059,35.797,35.797,35.797s35.797-16.059,35.797-35.797
	C154.17,137.17,138.112,121.111,118.374,121.111z M118.374,176.162c-10.616,0-19.254-8.638-19.254-19.254
	s8.638-19.254,19.254-19.254c10.616,0,19.254,8.638,19.254,19.254C137.627,167.524,128.99,176.162,118.374,176.162z"/>
<g>
	<rect x="35.797" y="148.635" style="fill:#FFFFFF;" width="22.02" height="16.543"/>
	<rect x="454.179" y="148.635" style="fill:#FFFFFF;" width="22.02" height="16.543"/>
</g>
<g>
</g>
<g>
</g>
<g>
</g>
<g>
</g>
<g>
</g>
<g>
</g>
<g>
</g>
<g>
</g>
<g>
</g>
<g>
</g>
<g>
</g>
<g>
</g>
<g>
</g>
<g>
</g>
<g>
</g>
</svg>
