<svg id="Layer_1" enable-background="new 0 0 24 24" viewBox="0 0 24 24" xmlns="http://www.w3.org/2000/svg" xmlns:xlink="http://www.w3.org/1999/xlink"><linearGradient id="lg1"><stop offset="0" stop-color="#fff" stop-opacity=".2"/><stop offset="1" stop-color="#fff" stop-opacity="0"/></linearGradient><linearGradient id="SVGID_1_" gradientUnits="userSpaceOnUse" x1="5.276" x2="9.72" xlink:href="#lg1" y1="3.764" y2="5.836"/><linearGradient id="SVGID_2_" gradientUnits="userSpaceOnUse" x1="1.494" x2="20.722" xlink:href="#lg1" y1="6.619" y2="15.586"/><g><path d="m20.667 3.028-8.5-3c-.107-.038-.226-.038-.333 0l-8.5 3c-.2.071-.334.26-.334.472v6c0 7.765 1.151 10.603 8.775 14.446.071.036.148.054.225.054s.154-.018.225-.054c7.624-3.843 8.775-6.681 8.775-14.446v-6c0-.212-.134-.401-.333-.472z" fill="#303c42"/><path d="m12 1.03-8 2.824v5.646c0 .905.015 1.733.052 2.5h7.948z" fill="#1e88e5"/><path d="m19.948 12c.037-.767.052-1.595.052-2.5v-5.646l-8-2.824v10.97z" fill="#01579b"/><path d="m12 12v10.94c6.194-3.158 7.678-5.402 7.948-10.94z" fill="#1e88e5"/><path d="m4.052 12c.27 5.538 1.754 7.782 7.948 10.94v-10.94z" fill="#01579b"/><path d="m4 9 7.953-7.953-3.864 1.364-4.089 4.089z" fill="url(#SVGID_1_)"/><path d="m12 22c-7.052-3.595-8-6.002-8-13.439v.939c0 7.437.948 9.844 8 13.439 7.052-3.595 8-6.002 8-13.439v-.939c0 7.437-.948 9.844-8 13.439z" opacity=".1"/><path d="m20.667 3.028-8.5-3c-.107-.038-.226-.038-.333 0l-8.5 3c-.2.071-.334.26-.334.472v6c0 7.765 1.151 10.603 8.775 14.446.071.036.148.054.225.054s.154-.018.225-.054c7.624-3.843 8.775-6.681 8.775-14.446v-6c0-.212-.134-.401-.333-.472z" fill="url(#SVGID_2_)"/></g><g/><g/><g/><g/><g/><g/><g/><g/><g/><g/><g/><g/><g/><g/><g/></svg>